<?xml version="1.0" encoding="utf-8"?>
<!DOCTYPE svg PUBLIC "-//W3C//DTD SVG 1.1//EN" "http://www.w3.org/Graphics/SVG/1.1/DTD/svg11.dtd">
<svg version="1.1" baseProfile="full"
 xmlns="http://www.w3.org/2000/svg"
 xmlns:xlink="http://www.w3.org/1999/xlink"
 xmlns:ev="http://www.w3.org/2001/xml-events" 
  height="17px" 
  width="16px" 
>
<path d="M12,16 C12,16 12,15 12,15 C12,15 16,15 16,15 C16,15 16,16 16,16 C16,16 12,16 12,16 ZM12,12 C12,12 16,12 16,12 C16,12 16,13 16,13 C16,13 12,13 12,13 C12,13 12,12 12,12 ZM12,9 C12,9 16,9 16,9 C16,9 16,10 16,10 C16,10 12,10 12,10 C12,10 12,9 12,9 ZM11,8 C11.0229999999999,8.977 11.0440000000001,15.567 11,16 C10.9870000000001,16.13 10.4580000000001,16.624 10.3900000000001,16.713 C10.098,17 9.80099999999993,16.905 9.654,16.779 C8.52700000000004,15.859 5.28500000000008,13.601 5,13 C4.94100000000003,12.184 5,10.345 5,8 C5,7.47200000000001 1.55500000000006,4.309 0.69800000000009,3.52000000000001 C0.49000000000001,3.298 0,2.846 0,2.006 C0,0.78299999999999 0.49000000000001,0 1.59999999999991,0 C1.59999999999991,0 14.4000000000001,0 14.4000000000001,0 C15.182,0 15.998,0.76599999999999 15.9839999999999,2.006 C16,2.56299999999999 15.77,3.03899999999999 15.317,3.52000000000001 C11.942,6.489 10.9829999999999,7.09299999999999 11,8 ZM14,1 C14,1 2,1 2,1 C1.35500000000002,1 0.8889999999999,1.20400000000001 0.8889999999999,1.78899999999999 C0.8889999999999,2.19399999999999 1.42599999999993,2.83600000000001 1.42599999999993,2.83600000000001 C1.42599999999993,2.83600000000001 2.39899999999989,3.65199999999999 3.673,4.744 C3.673,4.744 3.904,4.94200000000001 3.904,4.94200000000001 C5.79899999999998,6.57499999999999 5.97900000000004,7.15700000000001 5.99700000000007,7.79599999999999 C5.9860000000001,8.09299999999999 5.95399999999995,11.999 6,13 C5.99900000000002,12.881 7.04999999999995,13.185 8,14 C8,14 8.59400000000005,14.605 8.59400000000005,14.605 C9.10400000000004,15.038 10.0429999999999,15.012 10,15 C9.96499999999992,14.301 10,7.965 10,7 C10.2470000000001,6.452 10.3309999999999,6.34200000000001 11.3409999999999,5.523 C11.3440000000001,5.52000000000001 12.3699999999999,4.696 12.7360000000001,4.39699999999999 C14.153,3.238 14.5889999999999,2.83199999999999 14.5889999999999,2.83199999999999 C14.8879999999999,2.51599999999999 15.1179999999999,2.083 15.1110000000001,1.78899999999999 C15.1179999999999,1.26400000000001 14.3910000000001,1 14,1 ZM5.99700000000007,7.79599999999999 C5.99900000000002,7.744 6,7.78999999999999 6,8 C6,7.93000000000001 5.99900000000002,7.863 5.99700000000007,7.79599999999999 Z "/>
</svg>
